<?xml version="1.0" encoding="UTF-8" standalone="no"?>
<!-- Created with Inkscape (http://www.inkscape.org/) -->

<svg
   width="60.589474mm"
   height="60.589474mm"
   viewBox="0 0 60.589474 60.589474"
   version="1.1"
   id="svg1"
   inkscape:version="1.3.2 (091e20ef0f, 2023-11-25)"
   sodipodi:docname="busd-logo-square.svg"
   xmlns:inkscape="http://www.inkscape.org/namespaces/inkscape"
   xmlns:sodipodi="http://sodipodi.sourceforge.net/DTD/sodipodi-0.dtd"
   xmlns="http://www.w3.org/2000/svg"
   xmlns:svg="http://www.w3.org/2000/svg">
  <sodipodi:namedview
     id="namedview1"
     pagecolor="#ffffff"
     bordercolor="#000000"
     borderopacity="0.25"
     inkscape:showpageshadow="2"
     inkscape:pageopacity="0.0"
     inkscape:pagecheckerboard="0"
     inkscape:deskcolor="#d1d1d1"
     inkscape:document-units="mm"
     inkscape:zoom="0.75900673"
     inkscape:cx="114.62349"
     inkscape:cy="114.62349"
     inkscape:window-width="1920"
     inkscape:window-height="1011"
     inkscape:window-x="0"
     inkscape:window-y="0"
     inkscape:window-maximized="1"
     inkscape:current-layer="layer1" />
  <defs
     id="defs1" />
  <g
     inkscape:label="Layer 1"
     inkscape:groupmode="layer"
     id="layer1"
     transform="translate(-74.612467,-118.26872)">
    <rect
       style="fill:#cc4800;stroke-width:2.64583;stroke-linecap:round;stroke-linejoin:round;stroke-miterlimit:1.1;stroke-dashoffset:12"
       id="rect1"
       width="60.589001"
       height="60.589474"
       x="74.612465"
       y="118.26872" />
    <path
       id="rect144"
       style="color:#000000;fill:#ffffff;stroke-linejoin:round;stroke-miterlimit:1.1;stroke-dashoffset:12;-inkscape-stroke:none"
       d="m 90.48688,135.4661 c -1.88265,0 -3.43959,1.55694 -3.43959,3.43958 v 16.93333 c 0,1.88265 1.55694,3.43959 3.43959,3.43959 h 3.84472 a 2.3812492,2.3812492 0 0 1 -0.40462,-1.3224 2.3812492,2.3812492 0 0 1 0.40462,-1.3224 h -3.84472 c -0.46263,0 -0.79324,-0.33217 -0.79324,-0.79479 v -16.93333 c 0,-0.46262 0.33061,-0.79323 0.79324,-0.79323 h 28.83958 c 0.46262,0 0.79478,0.33061 0.79478,0.79323 v 16.93333 c 0,0.46262 -0.33216,0.79479 -0.79478,0.79479 h -7.80883 a 2.3812492,2.3812492 0 0 1 0.40101,1.3224 2.3812492,2.3812492 0 0 1 -0.40101,1.3224 h 7.80883 c 1.88264,0 3.43958,-1.55694 3.43958,-3.43959 v -16.93333 c 0,-1.88264 -1.55694,-3.43958 -3.43958,-3.43958 z m 7.8021,21.1677 a 2.3812492,2.3812492 0 0 1 0.4005,1.3224 2.3812492,2.3812492 0 0 1 -0.4005,1.3224 h 9.27127 a 2.3812492,2.3812492 0 0 1 -0.40411,-1.3224 2.3812492,2.3812492 0 0 1 0.40411,-1.3224 z" />
    <g
       id="circle145"
       transform="translate(-775.49179,-473.07503)">
      <path
         style="color:#000000;fill:#ffffff;stroke-linejoin:round;stroke-miterlimit:1.1;stroke-dashoffset:12;-inkscape-stroke:none"
         d="m 871.80078,627.32617 c -2.03008,0 -3.70508,1.675 -3.70508,3.70508 0,2.03008 1.675,3.70312 3.70508,3.70312 2.03008,0 3.70313,-1.67304 3.70313,-3.70312 0,-2.03008 -1.67305,-3.70508 -3.70313,-3.70508 z m 0,2.64649 c 0.60017,0 1.0586,0.45842 1.05859,1.05859 0,0.60017 -0.45842,1.05859 -1.05859,1.05859 -0.60017,0 -1.05859,-0.45842 -1.05859,-1.05859 0,-0.60017 0.45842,-1.05859 1.05859,-1.05859 z"
         id="path159" />
    </g>
    <path
       style="color:#000000;fill:#ffffff;stroke-linejoin:round;stroke-miterlimit:1.1;stroke-dashoffset:12;-inkscape-stroke:none"
       d="m 109.53751,154.25114 c -2.03009,0 -3.70508,1.675 -3.70508,3.70508 0,2.03008 1.67499,3.70312 3.70508,3.70312 2.03008,0 3.70312,-1.67304 3.70312,-3.70312 0,-2.03008 -1.67304,-3.70508 -3.70312,-3.70508 z m 0,2.64649 c 0.60017,0 1.05859,0.45842 1.05859,1.05859 0,0.60017 -0.45842,1.05859 -1.05859,1.05859 -0.60017,0 -1.0586,-0.45842 -1.0586,-1.05859 0,-0.60017 0.45843,-1.05859 1.0586,-1.05859 z"
       id="path161" />
    <path
       style="color:#000000;fill:#ffffff;stroke-linejoin:round;stroke-miterlimit:1.1;stroke-dashoffset:12;-inkscape-stroke:none"
       d="m 101.60196,135.48552 a 1.3230472,1.3230472 0 0 0 -1.32227,1.30273 v 13.23047 a 1.3230472,1.3230472 0 0 0 2.64454,0 v -13.23047 a 1.3230472,1.3230472 0 0 0 -1.32227,-1.30273 z"
       id="path146" />
    <path
       style="color:#000000;fill:#ffffff;stroke-linejoin:round;stroke-miterlimit:1.1;stroke-dashoffset:12;-inkscape-stroke:none"
       d="m 88.37149,148.6945 v 2.64649 h 33.07227 v -2.64649 z"
       id="path147" />
    <path
       style="color:#000000;fill:#ffffff;stroke-linejoin:round;stroke-miterlimit:1.1;stroke-dashoffset:12;-inkscape-stroke:none"
       d="m 113.50626,136.78825 v 21.16797 h 2.64648 v -21.16797 z"
       id="path148" />
  </g>
</svg>
